<svg width="245" height="63" viewBox="0 0 245 63" fill="none" xmlns="http://www.w3.org/2000/svg">
<path d="M0 15L15 0H245V48L230 63H0V15Z" fill="#CC2828"/>
<path d="M61.284 19.852H85.056V23.016H61.284V19.852ZM60.36 29.876H85.868V33.096H60.36V29.876ZM76.6 21.7H80.1V44.548H76.6V21.7ZM66.716 21.7H70.16V29.064C70.16 34.468 69.46 40.6 63.02 44.66C62.404 43.876 61.144 42.7 60.276 42.14C66.072 38.64 66.716 33.6 66.716 29.064V21.7ZM108.044 40.404H116.976V43.428H108.044V40.404ZM106.364 32.788H118.768V44.408H115.436V35.812H109.556V44.52H106.364V32.788ZM104.572 27.468C107.904 27.328 112.972 27.048 117.732 26.74L117.704 29.736C113.196 30.1 108.38 30.464 104.908 30.716L104.572 27.468ZM113.392 23.94L116.052 22.596C117.816 24.948 119.664 28.084 120.336 30.212L117.424 31.752C116.836 29.652 115.1 26.404 113.392 23.94ZM109.444 18.2L113.168 18.9C112.02 22.484 110.508 26.572 109.248 29.204L106.42 28.476C107.568 25.704 108.828 21.392 109.444 18.2ZM93.764 23.8H102.836V26.908H93.764V23.8ZM97.544 18.2L100.708 18.564C99.532 24.5 97.796 32.032 96.424 37.072L93.68 35.588C94.968 31.192 96.592 23.772 97.544 18.2ZM95.36 35.168L97.18 32.816C100.12 34.636 103.816 37.352 105.44 39.452L103.424 42.14C101.856 40.04 98.3 37.1 95.36 35.168ZM101.604 23.8H102.164L102.752 23.716L104.74 24.08C104.096 35 101.408 41.188 95.836 44.632C95.388 43.82 94.492 42.588 93.82 41.944C98.58 39.452 101.072 33.264 101.604 24.416V23.8ZM143.016 21.952H146.292V31.528C146.292 32.48 146.404 32.648 147.048 32.648C147.356 32.648 148.532 32.648 148.868 32.648C149.568 32.648 149.68 32.032 149.792 28.42C150.464 28.98 151.864 29.512 152.76 29.736C152.452 34.384 151.64 35.7 149.204 35.7C148.616 35.7 147.076 35.7 146.544 35.7C143.716 35.7 143.016 34.664 143.016 31.556V21.952ZM136.212 21.868H139.488C139.404 29.484 138.928 34.244 134.28 37.016C133.888 36.176 132.936 34.944 132.208 34.356C136.016 32.116 136.128 28.42 136.212 21.868ZM128.54 19.824H152.508V23.044H131.9V44.52H128.54V19.824ZM130.612 39.984H153.208V43.204H130.612V39.984ZM176.644 28H184.428V31.22H176.644V28ZM175.02 28H178.352V39.676C178.352 40.852 178.52 41.02 179.612 41.02C180.088 41.02 182.16 41.02 182.748 41.02C183.812 41.02 184.008 40.348 184.148 36.596C184.876 37.156 186.304 37.744 187.2 37.968C186.836 42.728 185.968 44.156 183.028 44.156C182.356 44.156 179.752 44.156 179.108 44.156C176 44.156 175.02 43.176 175.02 39.704V28ZM174.908 19.516H186.108V32.956H182.86V22.736H174.908V19.516ZM161.58 24.472H173.34V43.96H170.68V27.244H164.156V44.352H161.58V24.472ZM162.98 35.728H171.94V38.052H162.98V35.728ZM162.98 39.984H171.94V42.588H162.98V39.984ZM161.076 19.236H173.9V22.204H161.076V19.236ZM164.828 19.908H167.04V26.656H164.828V19.908ZM168.16 19.908H170.4V26.656H168.16V19.908ZM165.388 26.628H166.928V29.456C166.928 31.052 166.648 33.124 165.332 34.58C165.08 34.272 164.464 33.712 164.1 33.516C165.248 32.284 165.388 30.744 165.388 29.428V26.628ZM167.88 26.628H169.448V31.78C169.448 32.144 169.476 32.2 169.672 32.2C169.756 32.2 170.064 32.2 170.148 32.2C170.428 32.2 170.484 32.172 170.54 32.088C170.848 32.368 171.492 32.592 171.968 32.732C171.772 33.516 171.296 33.824 170.428 33.824C170.204 33.824 169.7 33.824 169.476 33.824C168.244 33.824 167.88 33.46 167.88 31.808V26.628Z" fill="white"/>
</svg>
